<svg xml:space="preserve" style="max-height: 500px" viewBox="0 0 198.4 186.77379679144389" y="0px" x="0px" id="Layer_1" version="1.1" xmlns:xlink="http://www.w3.org/1999/xlink" xmlns="http://www.w3.org/2000/svg" width="198.4" height="186.77379679144389">
<style type="text/css">
	.st0{fill-rule:evenodd;clip-rule:evenodd;fill:#353940;}
	.st1{fill:#353940;}
	.st2{fill:url(#SVGID_1_);}
</style>
<g>
	<g>
		<path d="M286.3,37.4H268c-0.2-1.3-0.4-4.5-5.8-4.5c-4,0-5.3,2.4-5.3,4c0,2.7,4.5,4.5,9.6,6c10.5,2.9,21.8,6,21.8,19.2    c0,13.4-11.6,21.4-25.4,21.4c-9.4,0-23.8-4.2-25.4-20.3H256c0.7,5.6,6.4,5.6,7.1,5.6c3.1,0,6.5-1.8,6.5-4.7    c0-4.2-4.5-4.7-16.5-9.3c-8.2-2.5-14.9-7.6-14.9-16c0-12.7,11.3-20.7,24.1-20.7C270.6,18.1,284.8,21.4,286.3,37.4z M291.9,81.7    V20.3h16.9v6.5c2-2.9,6-8.7,16.7-8.7c20.7,0,22.7,16.9,22.7,25v38.5H330V48.1c0-6.7-1.5-12.7-9.4-12.7c-8.9,0-10.3,6.5-10.3,12.9    v33.4H291.9z M418.9,20.3v61.2h-18.3V75c-3.3,6-10.9,8.7-18.1,8.7c-19.4,0-30.8-15.2-30.8-32.7c0-20,14.5-32.7,30.8-32.7    c10,0,15.6,4.9,18.1,8.5v-6.5L418.9,20.3z M369.9,50.1c0,5.6,4.2,15.2,15.4,15.2c6.5,0,10.5-3.1,12.9-6.7c1.6-2.4,2.4-5.1,2.5-7.8    c0.2-2.7-0.4-5.4-1.6-8c-2-4.2-6.2-8.3-14-8.3C374.6,34.5,369.9,43.2,369.9,50.1z M426.2,81.7V0h18.5v42.6l17.4-22.1h22.1    l-23.4,26.9l22.7,34.3h-21l-17.8-29.4v29.4H426.2z M543.7,57.2h-46.3c0.7,6.5,7.1,10.9,14.3,10.9c6,0,9.1-2.5,11.3-5.8h19.1    c-3.1,6.9-7.4,12.2-12.7,15.6c-5.1,3.6-11.3,5.4-17.8,5.4c-17.8,0-33-14.2-33-32.5c0-17.1,13.6-32.8,32.7-32.8    c9.6,0,17.8,3.6,23.6,9.8C542.8,36.1,545.2,45.9,543.7,57.2L543.7,57.2z M496.9,41.7h27.2c-0.4-2.7-4.2-9.1-13.6-9.1    C501.1,32.7,497.3,39,496.9,41.7z M557.5,81.7L538.7,20h19.1l9.4,38.3L577.3,20h15.4L603,58.3l9.3-38.3h18.9l-18.9,61.7h-17.1    l-10.5-39.9l-10.3,39.9H557.5z M694.7,20.3v61.2h-18.3V75c-3.3,6-10.9,8.7-18.1,8.7c-19.4,0-30.8-15.2-30.8-32.7    c0-20,14.5-32.7,30.8-32.7c10,0,15.6,4.9,18.1,8.5v-6.5L694.7,20.3z M645.7,50.1c0,5.6,4.2,15.2,15.4,15.2    c6.5,0,10.5-3.1,12.9-6.7c1.6-2.4,2.4-5.1,2.5-7.8s-0.4-5.4-1.6-8c-2-4.2-6.2-8.3-14-8.3C650.4,34.5,645.7,43.2,645.7,50.1    L645.7,50.1z M702,81.7V20.3h17.2v6.9c1.8-3.3,4.9-8.9,15.4-8.9v18.5h-0.7c-9.4,0-13.8,3.4-13.8,12v32.8L702,81.7L702,81.7z     M799.6,57.2h-46.3c0.7,6.5,7.1,10.9,14.3,10.9c6,0,9.1-2.5,11.3-5.8H798c-3.1,6.9-7.4,12.2-12.7,15.6c-5.1,3.6-11.3,5.4-17.8,5.4    c-17.8,0-33-14.2-33-32.5c0-17.1,13.6-32.8,32.7-32.8c9.6,0,17.8,3.6,23.6,9.8C798.7,36.1,801,45.9,799.6,57.2z M754.6,41.7h27.2    c-0.4-2.7-4.2-9.1-13.6-9.1S755,39,754.6,41.7z" class="st0"/>
	</g>
	<g>
		<path d="M255.9,111.8c5.3,0,9.2,2.8,10.8,7.8l0.2,0.5h4.7l-0.2-0.9c-1.8-7.4-7.7-12-15.5-12    c-10.8,0-18.3,8.8-18.3,21.3c0,12.6,7.5,21.3,18.3,21.3c7.8,0,13.8-4.6,15.5-12l0.2-0.9h-4.7l-0.2,0.5c-1.7,5.1-5.5,7.8-10.8,7.8    c-8.1,0-13.5-6.7-13.5-16.7C242.4,118.5,247.9,111.8,255.9,111.8z" class="st1"/>
		<polygon points="288.3,107.8 283.5,107.8 283.5,149.3 310,149.3 310,144.8 288.3,144.8" class="st1"/>
		<path d="M335.8,107.2c-10.8,0-18.4,8.8-18.4,21.3c0,12.6,7.6,21.3,18.4,21.3c10.9,0,18.5-8.8,18.5-21.3    C354.2,116,346.6,107.2,335.8,107.2z M349.4,128.6c0,10-5.5,16.7-13.6,16.7c-8,0-13.5-6.9-13.5-16.7s5.6-16.7,13.5-16.7    C343.9,111.8,349.4,118.5,349.4,128.6z" class="st1"/>
		<path d="M392.8,132.3c0,8.3-4.1,13-11.3,13c-7.2,0-11.3-4.7-11.3-13v-24.5h-4.8v25c0,10.5,6.2,17.1,16.1,17.1    s16.1-6.5,16.1-17.1v-25h-4.8L392.8,132.3L392.8,132.3z" class="st1"/>
		<path d="M424.5,107.8h-12.9v41.5h12.9c12.1,0,20.2-8.3,20.2-20.7S436.5,107.8,424.5,107.8z M439.8,128.6    c0,9.8-6,16.2-15.3,16.2h-8.1v-32.4h8.1C433.8,112.3,439.8,118.7,439.8,128.6z" class="st1"/>
	</g>
	
		<linearGradient gradientTransform="matrix(1 0 0 -1 0 152)" y2="67.8816" x2="198" y1="67.8816" x1="0" gradientUnits="userSpaceOnUse" id="SVGID_1_">
		<stop style="stop-color:#2983C5" offset="0"/>
		<stop style="stop-color:#43B2E5" offset="1"/>
	</linearGradient>
	<path d="M185.4,137.4c4-4,7.1-8.7,9.3-13.9c2.2-5.2,3.3-10.7,3.3-16.3s-1.1-11.1-3.3-16.3l0,0   c-2.2-5.2-5.3-9.9-9.3-13.9s-8.7-7.1-13.9-9.3c-5.2-2.2-10.7-3.3-16.3-3.3c-11,0-21.1,4.3-30.9,13.1c-7.7,6.9-15.3,16.9-23.2,30.5   c-7.4,12.7-15.3,21.8-24.1,27.8c-8.9,6.1-18.9,9.1-30.5,9.1c-5.5,0-10.9-1.1-15.9-3.1c-5-2.1-9.5-5.1-13.4-9s-6.9-8.4-9-13.4   S5.1,109,5.1,103.5s1-10.9,3.1-15.9s5.1-9.5,9-13.4s8.4-6.9,13.4-9c10-4.1,21.7-4.1,31.7,0c5,2.1,9.5,5.1,13.4,9l3.6-3.6   c-4.3-4.3-9.4-7.7-15.1-10.1c-2.2-0.9-4.5-1.7-6.8-2.2l-4.3-1.1l1.6-4.1c1.6-4.2,3.8-8.1,6.5-11.6c3.6-4.7,8.1-8.7,13.3-11.7   c5.7-3.3,11.5-5.2,17.5-6c6.1-0.8,12.2-0.4,18.1,1.2s11.4,4.3,16.3,8c4.8,3.7,8.9,8.3,11.9,13.6l4.3-2.5c-3.4-5.9-7.9-11-13.2-15.1   c-5.4-4.1-11.5-7.1-18-8.9c-6.6-1.8-13.3-2.2-20.1-1.3c-6.7,0.9-13.1,3.1-19,6.5c-6.1,3.6-11.1,8-15.1,13.2   c-3.7,4.8-6.4,10.1-8.2,15.8L48.2,57l-2.8,0.1C39.6,57,34,58.2,28.7,60.4C23,62.8,18,66.2,13.6,70.5c-4.3,4.3-7.7,9.4-10.1,15.1   C1.2,91.3,0,97.3,0,103.4s1.2,12.1,3.5,17.8c2.4,5.7,5.8,10.8,10.1,15.1s9.4,7.7,15.1,10.1c5.7,2.3,11.6,3.5,17.8,3.5   c12.6,0,23.5-3.3,33.3-10.1c9.4-6.4,17.7-16.1,25.6-29.4c7.8-13.3,14.8-22.6,22.2-29.2c8.8-7.9,17.8-11.8,27.5-11.8   c5,0,9.9,1,14.4,2.8c4.5,1.9,8.7,4.6,12.2,8.2c3.6,3.6,6.3,7.7,8.2,12.2s2.8,9.4,2.8,14.4s-1,9.9-2.8,14.4   c-1.9,4.6-4.6,8.7-8.2,12.2c-3.6,3.6-7.7,6.3-12.2,8.2c-9.1,3.8-19.8,3.8-28.9,0c-4.5-1.9-8.7-4.6-12.2-8.2l-3.6,3.6   c4,4,8.7,7.1,13.9,9.3c10.4,4.3,22.3,4.3,32.7,0C176.8,144.5,181.4,141.3,185.4,137.4z" class="st2"/>
</g>
</svg>